<svg width="20" height="20" viewBox="0 0 20 20" fill="none" xmlns="http://www.w3.org/2000/svg">
<path d="M19.8506 9.51242C19.6358 9.26707 19.2604 9.24449 19.015 9.46113L17.27 11.0059L12.3409 15.3675C12.0302 15.6416 11.6347 15.7886 11.2282 15.7886C11.1098 15.7886 10.9914 15.777 10.8724 15.752L8.055 15.1276L4.65289 14.3769L2.26703 13.8489L1.92586 13.7726C1.81781 13.736 1.72199 13.6884 1.63777 13.6255C1.50227 13.5272 1.39485 13.3997 1.32102 13.2532C1.24531 13.1061 1.20567 12.9425 1.20567 12.7759C1.20567 12.674 1.22277 12.5671 1.25328 12.4628C1.29051 12.3498 1.34363 12.2479 1.40891 12.1576C1.50473 12.0221 1.63473 11.9146 1.78121 11.8414C1.92586 11.7651 2.08883 11.7261 2.25606 11.7261C2.28414 11.7261 2.31223 11.7285 2.34027 11.7285L4.79938 12.2595L10.5025 13.493C11.2087 13.6481 11.9454 13.4564 12.4874 12.9767L15.9939 9.8877L19.5742 6.73402C19.8958 6.44898 20.0313 6.00832 19.9215 5.59387C19.8141 5.17578 19.4808 4.85656 19.0603 4.76621L18.6141 4.67039L15.3615 3.96727L11.2422 3.07809C10.5366 2.92305 9.79996 3.11473 9.25735 3.59504L3.75504 8.42844L2.10039 9.88227L0.660548 11.1469C0.601329 11.2146 0.550665 11.2824 0.505509 11.3557C0.479884 11.3868 0.457306 11.4149 0.434689 11.4491C0.293712 11.6413 0.180782 11.8611 0.104493 12.1015C0.0336729 12.3243 0.000118256 12.5532 0.000118256 12.776C0.000118256 13.2588 0.155157 13.719 0.429181 14.0974C0.56711 14.2896 0.733751 14.4587 0.929064 14.5997C1.1207 14.7413 1.34106 14.8542 1.58094 14.9275L1.60656 14.936L4.11633 15.4866L6.49363 16.006L10.6214 16.9093C10.8216 16.9545 11.0249 16.9746 11.2281 16.9746C11.9197 16.9746 12.5947 16.7262 13.1257 16.2599L13.2667 16.136L18.1678 11.7964L19.7999 10.3511C20.0453 10.1331 20.0679 9.75836 19.8506 9.51242Z" fill="#D00000"/>
</svg>
