<svg xmlns="http://www.w3.org/2000/svg" xmlns:xlink="http://www.w3.org/1999/xlink"><symbol id="icon-arrow-bottom" viewBox="0 0 12 12"><path d="M10.23 3.173a.753.753 0 00-1.056.096L6 7.08l-3.175-3.81a.75.75 0 10-1.15.961l3.75 4.5a.75.75 0 001.15 0l3.75-4.5a.751.751 0 00-.094-1.057z" fill="#B4B4B4"/></symbol><symbol id="icon-copy" viewBox="0 0 12 12"><g clip-path="url(#clip0_2_177)"><path d="M11.524 3.06a.272.272 0 00-.007-.036v.002a.275.275 0 00-.068-.128L9.088.537a.28.28 0 00-.126-.068H8.96a.248.248 0 00-.034-.007h-.002A.256.256 0 008.89.455H5.346a.281.281 0 00-.28.281V9c0 .156.125.282.28.282h5.904A.281.281 0 0011.53 9V3.097a.342.342 0 00-.007-.039v.002h.001zM9.17 1.415l1.4 1.4h-1.4v-1.4zM5.628 8.719V1.017h2.98v2.08c0 .155.125.281.28.281h2.08v5.34h-5.34zm1.025 1.5a.281.281 0 00-.281.281v.476h-5.34V3.274H3.75a.281.281 0 000-.562h-3a.281.281 0 00-.281.28v8.266c0 .155.126.28.281.28h5.903a.281.281 0 00.282-.28V10.5a.281.281 0 00-.282-.281z" fill="#222"/></g><defs><clipPath id="clip0_2_177"><path fill="#fff" d="M0 0h12v12H0z"/></clipPath></defs></symbol> <view id="icon-arrow-bottom-view" viewBox="0 0 12 12"/><view id="icon-copy-view" viewBox="0 22 12 12"/> <use xlink:href="#icon-arrow-bottom" x="0" y="0" width="12" height="12"/><use xlink:href="#icon-copy" x="0" y="22" width="12" height="12"/></svg>