<svg width="12" height="12" viewBox="0 0 12 12" fill="none" xmlns="http://www.w3.org/2000/svg">
<path d="M10.2307 3.17345C10.0776 3.04688 9.88067 2.98594 9.68283 3.00391C9.48499 3.02188 9.30226 3.11731 9.17446 3.2694L6 7.07821L2.8255 3.26946C2.69807 3.11677 2.5152 3.02096 2.31712 3.00311C2.11904 2.98525 1.92198 3.04681 1.7693 3.17424C1.61661 3.30168 1.5208 3.48455 1.50294 3.68263C1.48508 3.8807 1.54664 4.07776 1.67408 4.23045L5.42429 8.73065C5.49464 8.81502 5.58267 8.88289 5.68216 8.92947C5.78165 8.97604 5.89015 9.00019 6 9.00019C6.10985 9.00019 6.21836 8.97604 6.31784 8.92947C6.41733 8.88289 6.50536 8.81502 6.57572 8.73065L10.3259 4.23039C10.4533 4.07754 10.5148 3.88039 10.497 3.68222C10.4791 3.48405 10.3834 3.30107 10.2307 3.17345Z" fill="#B4B4B4"/>
</svg>
