<svg xmlns="http://www.w3.org/2000/svg" width="512" height="512" version="1.0" viewBox="0 0 350 280"><g fill="#9013FE"><path d="M62.3 1.9C52 5.4 44.9 12.3 40.6 22.8c-1.6 3.9-2 8.5-2.7 28.2-.9 30.5-3.3 43.6-10.7 58.8-4.7 9.8-12.9 17.5-21.3 20L0 131.5v17l5.9 1.7c8.4 2.5 16.6 10.2 21.3 20 7.4 15.6 10.8 34.4 10.8 60.5 0 11.8.5 18.7 1.5 22.8 3 11.8 12.3 21.6 23.8 25 7.5 2.2 215.8 2.3 223.3 0 7.1-2.1 13.8-6.7 17.8-12.2 6.2-8.5 6.8-11.3 7.6-37.3.9-26 2.6-37.4 7.8-51.7 5.3-14.5 13.9-24 24.4-27.1l5.8-1.7v-17l-5.8-1.7c-10.5-3.1-19.1-12.6-24.4-27.1-5.2-14.2-6.9-25.7-7.8-51.7-.8-26-1.4-28.9-7.6-37.3-1.9-2.6-5.6-6.1-8.2-7.8C286.5-.3 291.8 0 174.6 0 74.2.1 67.2.2 62.3 1.9zm121.5 61c21.6 5.5 37 17.8 45.8 36.6 8.4 18.2 10.4 44.2 4.8 65.8-5.5 21.7-21.7 39.7-42.1 46.8-11.7 4.1-19.2 4.9-45.9 4.9H121V59.8l27.3.5c23.4.4 28.3.7 35.5 2.6z"/><path d="M139 138.4V201h15.6c17.7 0 26.3-1.5 36.4-6.4 12.6-6.1 22.3-18.9 26.1-34.6 2.1-8.4 1.8-35.7-.5-44-4.2-15.3-13.2-26.8-25.9-32.9-9.9-4.9-16.6-6.2-34.9-6.8l-16.8-.6v62.7z"/></g></svg>