<svg xmlns="http://www.w3.org/2000/svg" xmlns:xlink="http://www.w3.org/1999/xlink"><symbol id="icon-book" viewBox="0 0 20 20"><path d="M19.85 9.512a.591.591 0 00-.835-.05l-1.745 1.544-4.93 4.361a1.68 1.68 0 01-1.468.385l-2.817-.624-3.402-.751-2.386-.528-.341-.076a1.033 1.033 0 01-.605-.52 1.043 1.043 0 01.088-1.095c.096-.136.226-.243.372-.317.145-.076.308-.115.475-.115l.084.002 2.46.531 5.702 1.234a2.261 2.261 0 001.985-.516l3.507-3.09 3.58-3.153c.322-.285.457-.726.348-1.14a1.134 1.134 0 00-.862-.828l-.446-.096-3.253-.703-4.119-.889a2.26 2.26 0 00-1.985.517L3.755 8.428 2.1 9.882.66 11.147c-.059.068-.11.135-.154.209A2.257 2.257 0 000 12.776 2.252 2.252 0 00.928 14.6c.192.141.412.254.652.328l.026.008 2.51.55 2.377.52 4.127.903a2.873 2.873 0 002.504-.65l.142-.123 4.9-4.34 1.633-1.445a.595.595 0 00.05-.839z" fill="#D00000"/></symbol><symbol id="icon-component" viewBox="0 0 15 15"><path fill-rule="evenodd" clip-rule="evenodd" d="M7.854 1.49a.5.5 0 00-.707 0L1.49 7.146a.5.5 0 000 .708l5.657 5.656a.5.5 0 00.707 0l5.657-5.656a.5.5 0 000-.708L7.854 1.49zM7.5 2.55L2.55 7.5l4.95 4.95v-9.9z" fill="#1c76c3"/></symbol><symbol id="icon-project" viewBox="0 0 24 24"><path fill="#9741a1" d="M11.7 2h-.2-.6l.2 2h1.3c4 .3 7.3 3.5 7.5 7.6.2 4.4-3.2 8.2-7.6 8.4h-1.2l-.1 2H12.7c5.4-.4 9.5-5 9.3-10.4-.2-5.1-4.3-9.1-9.3-9.5h-.5c-.2-.1-.3-.1-.5-.1zm-3.5.7c-.5.3-1 .5-1.5.8l1.1 1.7c.3-.2.7-.4 1.1-.6l-.7-1.9zM4.5 5.4c-.4.4-.7.9-1 1.3l1.7 1c.2-.3.5-.6.8-1L4.5 5.4zm10.9 3l-4.6 5.2-2.7-2.1L7 13.2l4.2 3.2L17 9.8l-1.6-1.4zM2.4 9c-.2.5-.3 1.1-.3 1.6l2 .3c.1-.4.1-.9.3-1.3l-2-.6zm1.7 4l-2 .2v.3c.1.4.2.9.3 1.3l1.9-.6c-.1-.3-.2-.7-.2-1.1V13zm1.1 3.2l-1.7 1.1c.3.5.6.9 1 1.3L6 17.3c-.3-.4-.6-.7-.8-1.1zm2.6 2.6l-1.1 1.7c.5.3 1 .5 1.5.8l.8-1.8c-.5-.3-.9-.5-1.2-.7z"/></symbol> <view id="icon-book-view" viewBox="0 0 20 20"/><view id="icon-component-view" viewBox="0 30 15 15"/><view id="icon-project-view" viewBox="0 55 24 24"/> <use xlink:href="#icon-book" x="0" y="0" width="20" height="20"/><use xlink:href="#icon-component" x="0" y="30" width="15" height="15"/><use xlink:href="#icon-project" x="0" y="55" width="24" height="24"/></svg>